<?xml version="1.0" encoding="UTF-8"?>
<!DOCTYPE svg PUBLIC "-//W3C//DTD SVG 1.1//EN" "http://www.w3.org/Graphics/SVG/1.1/DTD/svg11.dtd">
<!-- Creator: CorelDRAW X8 -->
<svg xmlns="http://www.w3.org/2000/svg" xml:space="preserve" width="406px" height="476px" version="1.1" shape-rendering="geometricPrecision" text-rendering="geometricPrecision" image-rendering="optimizeQuality" fill-rule="evenodd" clip-rule="evenodd"
viewBox="0 0 406 476"
 xmlns:xlink="http://www.w3.org/1999/xlink">
 <defs>
   <linearGradient id="id0" gradientUnits="userSpaceOnUse" x1="139.442" y1="322.191" x2="361.828" y2="143.73">
    <stop offset="0" stop-opacity="1" stop-color="#FFCB4A"/>
    <stop offset="1" stop-opacity="1" stop-color="#E4A200"/>
   </linearGradient>
   <linearGradient id="id1" gradientUnits="userSpaceOnUse" x1="103.245" y1="25.154" x2="103.249" y2="425.465">
    <stop offset="0" stop-opacity="1" stop-color="#FFCB4A"/>
    <stop offset="1" stop-opacity="1" stop-color="#E4A200"/>
   </linearGradient>
   <linearGradient id="id2" gradientUnits="userSpaceOnUse" x1="381.122" y1="158.236" x2="-165.05" y2="11.3138">
    <stop offset="0" stop-opacity="1" stop-color="#FFCB4A"/>
    <stop offset="1" stop-opacity="1" stop-color="#E4A200"/>
   </linearGradient>
 </defs>
 <g id="fondo">
  <metadata id="CorelCorpID_0Corel-Layer"/>
  <rect fill="#367F9B" x="8" width="390" height="390"/>
 </g>
 <g id="sombra">
  <metadata id="CorelCorpID_1Corel-Layer"/>
  <polygon fill="#006084" points="351,157 351,149 398,195 398,276 351,241 "/>
  <polygon fill="#006084" points="351,241 134,366 175,390 398,390 398,276 398,276 "/>
 </g>
 <g id="Capa_x0020_1">
  <metadata id="CorelCorpID_2Corel-Layer"/>
  <g>
   <line fill="none" stroke="#FEFEFE" stroke-width="3.1252" stroke-linejoin="round" x1="134" y1="275" x2="55" y2= "320" />
  </g>
  <g>
   <line fill="none" stroke="#FEFEFE" stroke-width="3.1252" x1="272" y1="195" x2="351" y2= "149" />
  </g>
  <g>
   <line fill="none" stroke="#FEFEFE" stroke-width="3.12402" stroke-linejoin="round" x1="134" y1="116" x2="134" y2= "24" />
  </g>
  <polygon fill="#FEFEFE" fill-opacity="0.121569" points="134,275 272,195 272,195 134,116 "/>
  <polygon fill="url(#id0)" stroke="#FEFEFE" stroke-width="3.1252" stroke-linejoin="round" points="55,320 351,149 351,241 134,366 "/>
  <polygon fill="url(#id1)" stroke="#FEFEFE" stroke-width="3.1252" stroke-linejoin="round" points="134,24 134,366 55,320 55,70 "/>
  <polygon fill="url(#id2)" stroke="#FEFEFE" stroke-width="3.1252" stroke-linejoin="round" points="55,70 351,241 351,149 134,24 "/>
  <line fill="none" stroke="#FEFEFE" stroke-width="3.12402" x1="134" y1="24" x2="134" y2= "116" />
  <line fill="none" stroke="#FEFEFE" stroke-width="3.12402" x1="55" y1="320" x2="134" y2= "275" />
  <line fill="none" stroke="#FEFEFE" stroke-width="3.12402" x1="272" y1="195" x2="351" y2= "149" />
 </g>
 <g id="caption">
  <metadata id="CorelCorpID_3Corel-Layer"/>
  <polygon fill="#606062" fill-rule="nonzero" points="0,405 18,405 18,412 8,412 8,470 18,470 18,476 0,476 "/>
  <path fill="#606062" fill-rule="nonzero" d="M23 467l0 -53 18 0c7,0 13,1 17,3 4,2 8,5 10,9 3,5 4,9 4,14 0,4 -1,7 -2,11 -1,3 -3,6 -6,8 -3,3 -6,5 -9,6 -2,1 -4,1 -6,1 -1,1 -4,1 -9,1l-17 0zm17 -47l-9 0 0 40 9 0c4,0 7,0 9,-1 2,0 4,-1 6,-2 1,-1 2,-1 3,-3 4,-3 6,-8 6,-14 0,-6 -2,-11 -6,-14 -1,-2 -3,-3 -5,-3 -2,-1 -3,-2 -5,-2 -2,0 -4,-1 -8,-1zm70 30l-24 0c0,3 1,6 3,8 2,2 5,3 8,3 5,0 9,-1 13,-4l0 6c-2,2 -4,3 -7,3 -2,1 -4,1 -7,1 -4,0 -7,0 -9,-2 -3,-2 -5,-4 -6,-6 -1,-3 -2,-6 -2,-10 0,-5 1,-10 4,-13 3,-3 7,-5 12,-5 5,0 9,2 11,5 3,3 4,7 4,13l0 1zm-24 -4l18 0c-1,-3 -1,-5 -3,-7 -1,-1 -3,-2 -6,-2 -2,0 -4,1 -6,2 -2,2 -3,4 -3,7zm52 -14l8 0 -16 35 -2 0 -16 -35 8 0 9 21 9 -21zm41 18l-24 0c0,3 1,6 3,8 2,2 5,3 8,3 5,0 9,-1 13,-4l0 6c-2,2 -5,3 -7,3 -2,1 -4,1 -7,1 -4,0 -7,0 -9,-2 -3,-2 -5,-4 -6,-6 -2,-3 -2,-6 -2,-10 0,-5 1,-10 4,-13 3,-3 7,-5 12,-5 5,0 8,2 11,5 3,3 4,7 4,13l0 1zm-24 -4l17 0c0,-3 -1,-5 -2,-7 -1,-1 -3,-2 -6,-2 -2,0 -4,1 -6,2 -2,2 -3,4 -3,7zm56 -14l9 0 -14 17 15 18 -9 0 -11 -13 -10 13 -9 0 15 -18 -15 -17 9 0 10 12 10 -12z"/>
  <path fill="#F7C650" fill-rule="nonzero" d="M222 414l45 0 0 6 -19 0 0 47 -7 0 0 -47 -19 0 0 -6zm69 36l-24 0c0,3 1,6 3,8 2,2 5,3 8,3 5,0 9,-1 13,-4l0 6c-2,2 -5,3 -7,3 -2,1 -4,1 -7,1 -4,0 -7,0 -9,-2 -3,-2 -5,-4 -6,-6 -2,-3 -2,-6 -2,-10 0,-5 1,-10 4,-13 3,-3 7,-5 12,-5 5,0 8,2 11,5 3,3 4,7 4,13l0 1zm-24 -4l17 0c0,-3 -1,-5 -2,-7 -2,-1 -4,-2 -6,-2 -3,0 -5,1 -6,2 -2,2 -3,4 -3,7zm54 0l0 15c0,1 0,1 1,1 1,0 2,0 4,-1l0 4c-2,1 -3,2 -4,2 -1,0 -2,0 -3,0 -3,0 -4,-1 -5,-3 -3,2 -6,3 -9,3 -3,0 -5,0 -7,-2 -1,-2 -2,-4 -2,-6 0,-2 1,-4 2,-6 2,-2 4,-3 7,-4l9 -3 0 -2c0,-4 -2,-7 -6,-7 -4,0 -8,2 -11,6l0 -7c2,-3 6,-5 11,-5 4,0 7,1 9,3 1,1 2,1 2,3 1,1 1,2 2,3 0,1 0,3 0,6zm-7 14l0 -11 -5 2c-2,1 -4,2 -5,3 -1,1 -1,2 -1,4 0,1 0,2 1,3 1,1 2,2 4,2 2,0 4,-1 6,-3zm47 -19l0 26 -7 0 0 -20c0,-4 -1,-6 -2,-8 -1,-1 -3,-2 -5,-2 -2,0 -3,0 -4,1 -1,0 -3,2 -4,3l0 26 -7 0 0 -35 7 0 0 4c3,-3 7,-5 10,-5 5,0 8,2 10,6 4,-4 8,-6 12,-6 4,0 6,1 9,4 2,2 3,6 3,11l0 21 -7 0 0 -21c0,-3 -1,-5 -2,-7 -1,-1 -3,-2 -5,-2 -3,0 -6,1 -8,4z"/>
  <polygon fill="#606062" fill-rule="nonzero" points="406,476 388,476 388,470 398,470 398,412 388,412 388,405 406,405 "/>
 </g>
</svg>
