<svg width="185" height="40" viewBox="0 0 185 40" fill="none" xmlns="http://www.w3.org/2000/svg">
<path fill-rule="evenodd" clip-rule="evenodd" d="M9.44507 28.8889L24.1973 20L9.44507 11.2223V28.8889Z" fill="#FEFEFE" fill-opacity="0.121569"/>
<path fill-rule="evenodd" clip-rule="evenodd" d="M1 33.889L32.6424 14.889V25.1112L9.4451 39.0001L1 33.889Z" stroke="#FEFEFE" stroke-linejoin="round"/>
<path fill-rule="evenodd" clip-rule="evenodd" d="M9.4451 1V39L1 33.8889V6.11111L9.4451 1Z" stroke="#FEFEFE" stroke-linejoin="round"/>
<path fill-rule="evenodd" clip-rule="evenodd" d="M1 6.11111L32.6424 25.1111V14.8889L9.4451 1L1 6.11111Z" stroke="#FEFEFE" stroke-linejoin="round"/>
<path d="M40.736 11.2H47.576C49.352 11.2 50.92 11.56 52.28 12.28C53.64 12.984 54.696 13.976 55.448 15.256C56.2 16.52 56.576 17.968 56.576 19.6C56.576 21.232 56.2 22.688 55.448 23.968C54.696 25.232 53.64 26.224 52.28 26.944C50.92 27.648 49.352 28 47.576 28H40.736V11.2ZM47.48 26.464C48.952 26.464 50.24 26.176 51.344 25.6C52.448 25.008 53.304 24.2 53.912 23.176C54.52 22.136 54.824 20.944 54.824 19.6C54.824 18.256 54.52 17.072 53.912 16.048C53.304 15.008 52.448 14.2 51.344 13.624C50.24 13.032 48.952 12.736 47.48 12.736H42.512V26.464H47.48ZM66.6041 26.608C67.3881 26.608 68.1081 26.472 68.7641 26.2C69.4361 25.912 70.0041 25.496 70.4681 24.952L71.4281 26.056C70.8681 26.728 70.1721 27.24 69.3401 27.592C68.5081 27.944 67.5881 28.12 66.5801 28.12C65.2841 28.12 64.1321 27.848 63.1241 27.304C62.1161 26.744 61.3321 25.976 60.7721 25C60.2121 24.024 59.9321 22.92 59.9321 21.688C59.9321 20.456 60.1961 19.352 60.7241 18.376C61.2681 17.4 62.0121 16.64 62.9561 16.096C63.9001 15.552 64.9721 15.28 66.1721 15.28C67.2921 15.28 68.3001 15.536 69.1961 16.048C70.1081 16.56 70.8281 17.272 71.3561 18.184C71.9001 19.096 72.1881 20.136 72.2201 21.304L61.8521 23.32C62.1721 24.344 62.7481 25.152 63.5801 25.744C64.4281 26.32 65.4361 26.608 66.6041 26.608ZM66.1721 16.744C65.2921 16.744 64.5001 16.952 63.7961 17.368C63.1081 17.768 62.5641 18.336 62.1641 19.072C61.7801 19.792 61.5881 20.624 61.5881 21.568C61.5881 21.808 61.5961 21.984 61.6121 22.096L70.5161 20.368C70.3241 19.312 69.8361 18.448 69.0521 17.776C68.2681 17.088 67.3081 16.744 66.1721 16.744ZM87.0621 15.376L81.4461 28H79.6941L74.1021 15.376H75.8781L80.6061 26.128L85.3821 15.376H87.0621ZM95.5104 26.608C96.2944 26.608 97.0144 26.472 97.6704 26.2C98.3424 25.912 98.9104 25.496 99.3744 24.952L100.334 26.056C99.7744 26.728 99.0784 27.24 98.2464 27.592C97.4144 27.944 96.4944 28.12 95.4864 28.12C94.1904 28.12 93.0384 27.848 92.0304 27.304C91.0224 26.744 90.2384 25.976 89.6784 25C89.1184 24.024 88.8384 22.92 88.8384 21.688C88.8384 20.456 89.1024 19.352 89.6304 18.376C90.1744 17.4 90.9184 16.64 91.8624 16.096C92.8064 15.552 93.8784 15.28 95.0784 15.28C96.1984 15.28 97.2064 15.536 98.1024 16.048C99.0144 16.56 99.7344 17.272 100.262 18.184C100.806 19.096 101.094 20.136 101.126 21.304L90.7584 23.32C91.0784 24.344 91.6544 25.152 92.4864 25.744C93.3344 26.32 94.3424 26.608 95.5104 26.608ZM95.0784 16.744C94.1984 16.744 93.4064 16.952 92.7024 17.368C92.0144 17.768 91.4704 18.336 91.0704 19.072C90.6864 19.792 90.4944 20.624 90.4944 21.568C90.4944 21.808 90.5024 21.984 90.5184 22.096L99.4224 20.368C99.2304 19.312 98.7424 18.448 97.9584 17.776C97.1744 17.088 96.2144 16.744 95.0784 16.744ZM113.283 28L109.275 22.72L105.243 28H103.323L108.315 21.52L103.563 15.376H105.483L109.275 20.32L113.067 15.376H114.939L110.187 21.52L115.227 28H113.283Z" fill="white"/>
<path d="M125.28 27.232C124.96 27.52 124.568 27.744 124.104 27.904C123.64 28.048 123.152 28.12 122.64 28.12C121.456 28.12 120.544 27.8 119.904 27.16C119.264 26.52 118.944 25.616 118.944 24.448V12.616H120.648V15.376H124.464V16.816H120.648V24.352C120.648 25.104 120.832 25.68 121.2 26.08C121.568 26.464 122.104 26.656 122.808 26.656C123.576 26.656 124.2 26.44 124.68 26.008L125.28 27.232ZM134.323 26.608C135.107 26.608 135.827 26.472 136.483 26.2C137.155 25.912 137.723 25.496 138.187 24.952L139.147 26.056C138.587 26.728 137.891 27.24 137.059 27.592C136.227 27.944 135.307 28.12 134.299 28.12C133.003 28.12 131.851 27.848 130.843 27.304C129.835 26.744 129.051 25.976 128.491 25C127.931 24.024 127.651 22.92 127.651 21.688C127.651 20.456 127.915 19.352 128.443 18.376C128.987 17.4 129.731 16.64 130.675 16.096C131.619 15.552 132.691 15.28 133.891 15.28C135.011 15.28 136.019 15.536 136.915 16.048C137.827 16.56 138.547 17.272 139.075 18.184C139.619 19.096 139.907 20.136 139.939 21.304L129.571 23.32C129.891 24.344 130.467 25.152 131.299 25.744C132.147 26.32 133.155 26.608 134.323 26.608ZM133.891 16.744C133.011 16.744 132.219 16.952 131.515 17.368C130.827 17.768 130.283 18.336 129.883 19.072C129.499 19.792 129.307 20.624 129.307 21.568C129.307 21.808 129.315 21.984 129.331 22.096L138.235 20.368C138.043 19.312 137.555 18.448 136.771 17.776C135.987 17.088 135.027 16.744 133.891 16.744ZM155.927 15.376V28H154.295V25.504C153.783 26.352 153.103 27 152.255 27.448C151.423 27.896 150.479 28.12 149.423 28.12C148.239 28.12 147.167 27.848 146.207 27.304C145.247 26.76 144.495 26 143.951 25.024C143.407 24.048 143.135 22.936 143.135 21.688C143.135 20.44 143.407 19.328 143.951 18.352C144.495 17.376 145.247 16.624 146.207 16.096C147.167 15.552 148.239 15.28 149.423 15.28C150.447 15.28 151.367 15.496 152.183 15.928C153.015 16.344 153.695 16.96 154.223 17.776V15.376H155.927ZM149.567 26.608C150.447 26.608 151.239 26.408 151.943 26.008C152.663 25.592 153.223 25.008 153.623 24.256C154.039 23.504 154.247 22.648 154.247 21.688C154.247 20.728 154.039 19.872 153.623 19.12C153.223 18.368 152.663 17.792 151.943 17.392C151.239 16.976 150.447 16.768 149.567 16.768C148.671 16.768 147.863 16.976 147.143 17.392C146.439 17.792 145.879 18.368 145.463 19.12C145.063 19.872 144.863 20.728 144.863 21.688C144.863 22.648 145.063 23.504 145.463 24.256C145.879 25.008 146.439 25.592 147.143 26.008C147.863 26.408 148.671 26.608 149.567 26.608ZM177.417 15.28C179.001 15.28 180.241 15.736 181.137 16.648C182.049 17.56 182.505 18.904 182.505 20.68V28H180.801V20.848C180.801 19.536 180.481 18.536 179.841 17.848C179.217 17.16 178.329 16.816 177.177 16.816C175.865 16.816 174.833 17.224 174.081 18.04C173.329 18.84 172.953 19.952 172.953 21.376V28H171.249V20.848C171.249 19.536 170.929 18.536 170.289 17.848C169.665 17.16 168.769 16.816 167.601 16.816C166.305 16.816 165.273 17.224 164.505 18.04C163.753 18.84 163.377 19.952 163.377 21.376V28H161.673V15.376H163.305V17.68C163.753 16.912 164.377 16.32 165.177 15.904C165.977 15.488 166.897 15.28 167.937 15.28C168.993 15.28 169.905 15.504 170.673 15.952C171.457 16.4 172.041 17.064 172.425 17.944C172.889 17.112 173.553 16.464 174.417 16C175.297 15.52 176.297 15.28 177.417 15.28Z" fill="#FAC324"/>
</svg>
